<svg width="456" height="840" viewBox="0 0 456 840" fill="none" xmlns="http://www.w3.org/2000/svg">
<g clip-path="url(#clip0_35580_48126)">
<path opacity="0.85" d="M186 53H210.981C220.594 52.9828 229.571 48.2446 234.906 40.359L252.998 13.641C258.341 5.74683 267.335 1 276.975 1H527" stroke="#DDD1FB" stroke-width="2" stroke-miterlimit="10"/>
<path opacity="0.85" d="M184 54L210.776 54C220.384 53.9826 229.363 58.7631 234.729 66.751L252.522 93.2491C257.871 101.22 266.833 106 276.414 106H504" stroke="#DDD1FB" stroke-width="2" stroke-miterlimit="10"/>
<path opacity="0.85" d="M185.611 55H77.6526C71.0252 55 65.6526 60.3726 65.6526 67V111.571C65.6526 118.198 71.0252 123.571 77.6526 123.571H129.509C136.136 123.571 141.509 128.943 141.509 135.571L141.509 478.413C141.509 485.041 146.882 490.413 153.509 490.413H323C329.627 490.413 335 495.786 335 502.413V565.108C335 571.735 329.627 577.108 323 577.108H20C13.3726 577.108 8.00001 582.48 8.00001 589.108V838" stroke="#DDD1FB" stroke-width="2" stroke-linejoin="bevel"/>
<path d="M187.967 62.9988C192.385 62.9988 195.966 59.4178 195.966 55.0004C195.966 50.583 192.385 47.002 187.967 47.002C183.55 47.002 179.969 50.583 179.969 55.0004C179.969 59.4178 183.55 62.9988 187.967 62.9988Z" fill="#DDD1FB"/>
<path d="M7.99841 839.999C12.4158 839.999 15.9968 836.418 15.9968 832C15.9968 827.583 12.4158 824.002 7.99841 824.002C3.58101 824.002 0 827.583 0 832C0 836.418 3.58101 839.999 7.99841 839.999Z" fill="#DDD1FB"/>
</g>
<defs>
<clipPath id="clip0_35580_48126">
<rect width="527" height="840" fill="white"/>
</clipPath>
</defs>
</svg>
